# xmcd
#
# Track frame offsets:
#	150
#	5045
#	15593
#	27195
#	41624
#	55104
#	69544
#	83452
#	92691
#	104268
#	109444
#	126628
#	135850
#	140905
#	152287
#	162385
#	169297
#	184592
#	195509
#	203801
#	208836
#
# Disc length: 2944 seconds
#
# Revision: 3
# Processed by: cddbd v1.5.2PL0 Copyright (c) Steve Scherf et al.
# Submitted via: audiograbber 1.83.01
#
DISCID=200b7e15
DTITLE=Stefano Bollani, Massimo Altomare - Gnosi delle fanfole
DYEAR=1998
DGENRE=Jazz
TTITLE0=Fosco
TTITLE1=Il lonfo
TTITLE2=E gnacche alla formica
TTITLE3=Ballo
TTITLE4=Fiore secco in libro vecchio
TTITLE5=Il giorno ad urlapicchio
TTITLE6=Gli Arconti dell'Urazio
TTITLE7=Dialogo celeste
TTITLE8=Prato
TTITLE9=Budrioso meriggio
TTITLE10=Via Veneto
TTITLE11=Chiesa
TTITLE12=Gnòsi
TTITLE13=Che fanno?
TTITLE14=Le pietre rare
TTITLE15=Sdrafànico mistero
TTITLE16=Il vecchio Troncia
TTITLE17=Solstizio d'estate
TTITLE18=Circuito dell'anima
TTITLE19=Dulcibana
TTITLE20=Bottiglie
EXTD=
EXTT0=
EXTT1=
EXTT2=
EXTT3=
EXTT4=
EXTT5=
EXTT6=
EXTT7=
EXTT8=
EXTT9=
EXTT10=
EXTT11=
EXTT12=
EXTT13=
EXTT14=
EXTT15=
EXTT16=
EXTT17=
EXTT18=
EXTT19=
EXTT20=
PLAYORDER=
